<?xml version="1.0" encoding="utf-8"?><svg version="1.1" xmlns="http://www.w3.org/2000/svg" xmlns:xlink="http://www.w3.org/1999/xlink" x="0%" y="0%" width="100%" height="100%" viewBox="0 0 24.0 24.0" enable-background="new 0 0 24.0 24.0" xml:space="preserve"><path fill="#f3772d" stroke="#f3772d" fill-opacity="1.000" stroke-opacity="1.000" fill-rule="nonzero" stroke-width="0.4984609" stroke-linejoin="round" stroke-linecap="square" d="M17.41,1.19C18.72,1.93,20.04,2.66,21.18,3.87C22.32,5.07,23.29,6.75,23.51,8.66C23.74,10.57,23.22,12.73,22.64,12.98C22.06,13.23,21.42,11.58,21.18,10.24C20.93,8.90,21.09,7.88,20.68,6.99C20.27,6.10,19.30,5.34,18.41,4.51C17.53,3.67,16.72,2.76,15.25,2.61C13.78,2.46,11.64,3.08,11.40,2.67C11.16,2.25,12.82,0.80,14.14,0.38C15.46,-0.04,16.44,0.58,17.41,1.19z"/><path fill="#864521" stroke="#864521" fill-opacity="1.000" stroke-opacity="1.000" fill-rule="nonzero" stroke-width="0.4984609" stroke-linejoin="round" stroke-linecap="square" d="M8.02,16.10C8.48,16.74,8.93,17.38,9.08,18.18C9.23,18.99,9.06,19.96,9.42,20.92C9.78,21.88,10.66,22.82,10.12,23.32C9.59,23.81,7.64,23.86,6.83,23.25C6.02,22.64,6.36,21.39,6.28,19.98C6.20,18.58,5.72,17.02,5.94,16.35C6.16,15.68,7.09,15.89,8.02,16.10z"/><path fill="#f3772d" stroke="#f3772d" fill-opacity="1.000" stroke-opacity="1.000" fill-rule="nonzero" stroke-width="0.4984609" stroke-linejoin="round" stroke-linecap="square" d="M11.79,8.37C17.82,8.37,22.71,10.33,22.71,12.74C22.71,15.15,17.82,17.11,11.79,17.11C5.76,17.11,0.86,15.15,0.86,12.74C0.86,10.33,5.76,8.37,11.79,8.37z"/><path fill="#f3772d" stroke="#f3772d" fill-opacity="1.000" stroke-opacity="1.000" fill-rule="nonzero" stroke-width="0.4984609" stroke-linejoin="round" stroke-linecap="square" d="M17.93,16.16C18.36,16.79,18.80,17.43,18.98,18.25C19.17,19.08,19.10,20.10,19.33,20.99C19.55,21.88,20.08,22.64,19.54,23.13C19.01,23.63,17.41,23.86,16.74,23.32C16.06,22.78,16.30,21.47,16.19,20.05C16.07,18.63,15.61,17.09,15.85,16.42C16.08,15.75,17.00,15.96,17.93,16.16z"/><path fill="#f3772d" stroke="#f3772d" fill-opacity="1.000" stroke-opacity="1.000" fill-rule="nonzero" stroke-width="0.4984609" stroke-linejoin="round" stroke-linecap="square" d="M8.56,22.21C7.41,22.05,6.26,21.88,4.79,21.18C3.32,20.48,1.55,19.24,0.77,17.27C-0.01,15.29,0.21,12.59,1.01,12.18C1.80,11.77,3.18,13.65,3.59,14.89C4.00,16.12,3.44,16.70,3.99,17.51C4.54,18.32,6.21,19.35,7.63,19.92C9.05,20.48,10.23,20.56,11.50,20.11C12.76,19.66,14.11,18.67,14.14,19.00C14.16,19.32,12.86,20.96,11.71,21.71C10.56,22.47,9.56,22.34,8.56,22.21z"/><path fill="#f3772d" stroke="#000000" fill-opacity="1.000" stroke-opacity="1.000" fill-rule="nonzero" stroke-width="0.24923044" stroke-linejoin="round" stroke-linecap="square" d="M17.39,22.45Q17.85,22.90,17.62,23.72"/><path fill="#f3772d" stroke="#000000" fill-opacity="1.000" stroke-opacity="1.000" fill-rule="nonzero" stroke-width="0.24923044" stroke-linejoin="round" stroke-linecap="square" d="M18.73,22.30Q19.19,22.75,18.95,23.53"/><path fill="#864521" stroke="#000000" fill-opacity="1.000" stroke-opacity="1.000" fill-rule="nonzero" stroke-width="0.24923044" stroke-linejoin="round" stroke-linecap="square" d="M9.17,22.71Q9.61,23.12,9.39,23.71"/><path fill="#864521" stroke="#000000" fill-opacity="1.000" stroke-opacity="1.000" fill-rule="nonzero" stroke-width="0.24923044" stroke-linejoin="round" stroke-linecap="square" d="M7.56,22.50Q8.03,22.95,7.79,23.74"/><path fill="#f3772d" stroke="#000000" fill-opacity="0.004" stroke-opacity="1.000" fill-rule="nonzero" stroke-width="0.14953825" stroke-linejoin="round" stroke-linecap="square" d="M11.37,2.84Q12.23,2.89,12.76,2.20"/><path fill="#000000" stroke="#000000" fill-opacity="0.973" stroke-opacity="1.000" fill-rule="nonzero" stroke-width="0.14953825" stroke-linejoin="round" stroke-linecap="square" d="M13.68,0.70C13.86,0.62,14.03,0.62,14.07,0.70C14.11,0.78,14.00,0.92,13.83,1.00C13.65,1.08,13.48,1.08,13.44,1.00C13.40,0.91,13.51,0.78,13.68,0.70z"/><path fill="#f3772d" stroke="#000000" fill-opacity="0.000" stroke-opacity="1.000" fill-rule="nonzero" stroke-width="0.14953825" stroke-linejoin="round" stroke-linecap="square" d="M13.25,2.26Q12.68,2.27,12.67,1.72"/></svg>